<mxfile host="65bd71144e">
    <diagram id="T_hlK8nRYJqbb6nCMalY" name="Page-1">
        <mxGraphModel dx="901" dy="475" grid="1" gridSize="10" guides="1" tooltips="1" connect="1" arrows="1" fold="1" page="1" pageScale="1" pageWidth="850" pageHeight="1100" math="0" shadow="0">
            <root>
                <mxCell id="0"/>
                <mxCell id="1" parent="0"/>
                <mxCell id="2" value="&lt;font style=&quot;font-size: 24px;&quot;&gt;Shared Book&lt;/font&gt;" style="text;strokeColor=none;fillColor=none;align=left;verticalAlign=middle;spacingLeft=4;spacingRight=4;overflow=hidden;points=[[0,0.5],[1,0.5]];portConstraint=eastwest;rotatable=0;whiteSpace=wrap;html=1;" vertex="1" parent="1">
                    <mxGeometry x="10" y="10" width="190" height="50" as="geometry"/>
                </mxCell>
                <mxCell id="3" value="&lt;font style=&quot;font-size: 24px;&quot;&gt;カレンダー一覧画面&lt;/font&gt;" style="text;strokeColor=none;fillColor=none;align=left;verticalAlign=middle;spacingLeft=4;spacingRight=4;overflow=hidden;points=[[0,0.5],[1,0.5]];portConstraint=eastwest;rotatable=0;whiteSpace=wrap;html=1;" vertex="1" parent="1">
                    <mxGeometry x="310" y="85" width="230" height="50" as="geometry"/>
                </mxCell>
                <mxCell id="18" value="" style="strokeWidth=1;shadow=0;dashed=0;align=center;html=1;shape=mxgraph.mockup.forms.rrect;rSize=5;strokeColor=#999999;fillColor=#ffffff;" vertex="1" parent="1">
                    <mxGeometry x="78" y="131" width="490" height="550" as="geometry"/>
                </mxCell>
                <mxCell id="19" value="October 2014" style="strokeWidth=1;shadow=0;dashed=0;align=center;html=1;shape=mxgraph.mockup.forms.anchor;fontColor=#999999;" vertex="1" parent="18">
                    <mxGeometry x="91.875" y="25.142857142857146" width="306.25" height="62.85714285714286" as="geometry"/>
                </mxCell>
                <mxCell id="20" value="&lt;" style="strokeWidth=1;shadow=0;dashed=0;align=center;html=1;shape=mxgraph.mockup.forms.rrect;rSize=4;strokeColor=#999999;fontColor=#008cff;fontSize=19;fontStyle=1;" vertex="1" parent="18">
                    <mxGeometry x="24.5" y="25.142857142857146" width="76.5625" height="62.85714285714286" as="geometry"/>
                </mxCell>
                <mxCell id="21" value="&gt;" style="strokeWidth=1;shadow=0;dashed=0;align=center;html=1;shape=mxgraph.mockup.forms.rrect;rSize=4;strokeColor=#999999;fontColor=#008cff;fontSize=19;fontStyle=1;" vertex="1" parent="18">
                    <mxGeometry x="388.9375" y="25.142857142857146" width="76.5625" height="62.85714285714286" as="geometry"/>
                </mxCell>
                <mxCell id="22" value="Mo" style="strokeWidth=1;shadow=0;dashed=0;align=center;html=1;shape=mxgraph.mockup.forms.anchor;fontColor=#999999;" vertex="1" parent="18">
                    <mxGeometry x="30.625" y="88" width="61.25" height="62.85714285714286" as="geometry"/>
                </mxCell>
                <mxCell id="23" value="Tu" style="strokeWidth=1;shadow=0;dashed=0;align=center;html=1;shape=mxgraph.mockup.forms.anchor;fontColor=#999999;" vertex="1" parent="18">
                    <mxGeometry x="91.875" y="88" width="61.25" height="62.85714285714286" as="geometry"/>
                </mxCell>
                <mxCell id="24" value="We" style="strokeWidth=1;shadow=0;dashed=0;align=center;html=1;shape=mxgraph.mockup.forms.anchor;fontColor=#999999;" vertex="1" parent="18">
                    <mxGeometry x="153.125" y="88" width="61.25" height="62.85714285714286" as="geometry"/>
                </mxCell>
                <mxCell id="25" value="Th" style="strokeWidth=1;shadow=0;dashed=0;align=center;html=1;shape=mxgraph.mockup.forms.anchor;fontColor=#999999;" vertex="1" parent="18">
                    <mxGeometry x="214.375" y="88" width="61.25" height="62.85714285714286" as="geometry"/>
                </mxCell>
                <mxCell id="26" value="Fr" style="strokeWidth=1;shadow=0;dashed=0;align=center;html=1;shape=mxgraph.mockup.forms.anchor;fontColor=#999999;" vertex="1" parent="18">
                    <mxGeometry x="275.625" y="88" width="61.25" height="62.85714285714286" as="geometry"/>
                </mxCell>
                <mxCell id="27" value="Sa" style="strokeWidth=1;shadow=0;dashed=0;align=center;html=1;shape=mxgraph.mockup.forms.anchor;fontColor=#999999;" vertex="1" parent="18">
                    <mxGeometry x="336.875" y="88" width="61.25" height="62.85714285714286" as="geometry"/>
                </mxCell>
                <mxCell id="28" value="Su" style="strokeWidth=1;shadow=0;dashed=0;align=center;html=1;shape=mxgraph.mockup.forms.anchor;fontColor=#999999;" vertex="1" parent="18">
                    <mxGeometry x="398.125" y="88" width="61.25" height="62.85714285714286" as="geometry"/>
                </mxCell>
                <mxCell id="29" value="1" style="strokeWidth=1;shadow=0;dashed=0;align=center;html=1;shape=mxgraph.mockup.forms.rrect;rSize=0;strokeColor=#999999;fontColor=#999999;" vertex="1" parent="18">
                    <mxGeometry x="30.625" y="150.8571428571429" width="61.25" height="62.85714285714286" as="geometry"/>
                </mxCell>
                <mxCell id="30" value="2" style="strokeWidth=1;shadow=0;dashed=0;align=center;html=1;shape=mxgraph.mockup.forms.rrect;rSize=0;strokeColor=#999999;fontColor=#999999;" vertex="1" parent="18">
                    <mxGeometry x="91.875" y="150.8571428571429" width="61.25" height="62.85714285714286" as="geometry"/>
                </mxCell>
                <mxCell id="31" value="3" style="strokeWidth=1;shadow=0;dashed=0;align=center;html=1;shape=mxgraph.mockup.forms.rrect;rSize=0;strokeColor=#999999;fontColor=#999999;" vertex="1" parent="18">
                    <mxGeometry x="153.125" y="150.8571428571429" width="61.25" height="62.85714285714286" as="geometry"/>
                </mxCell>
                <mxCell id="32" value="4" style="strokeWidth=1;shadow=0;dashed=0;align=center;html=1;shape=mxgraph.mockup.forms.rrect;rSize=0;strokeColor=#999999;fontColor=#999999;" vertex="1" parent="18">
                    <mxGeometry x="214.375" y="150.8571428571429" width="61.25" height="62.85714285714286" as="geometry"/>
                </mxCell>
                <mxCell id="33" value="5" style="strokeWidth=1;shadow=0;dashed=0;align=center;html=1;shape=mxgraph.mockup.forms.rrect;rSize=0;strokeColor=#999999;fontColor=#999999;" vertex="1" parent="18">
                    <mxGeometry x="275.625" y="150.8571428571429" width="61.25" height="62.85714285714286" as="geometry"/>
                </mxCell>
                <mxCell id="34" value="6" style="strokeWidth=1;shadow=0;dashed=0;align=center;html=1;shape=mxgraph.mockup.forms.rrect;rSize=0;strokeColor=#999999;fontColor=#999999;" vertex="1" parent="18">
                    <mxGeometry x="336.875" y="150.8571428571429" width="61.25" height="62.85714285714286" as="geometry"/>
                </mxCell>
                <mxCell id="35" value="7" style="strokeWidth=1;shadow=0;dashed=0;align=center;html=1;shape=mxgraph.mockup.forms.rrect;rSize=0;strokeColor=#999999;fontColor=#999999;" vertex="1" parent="18">
                    <mxGeometry x="398.125" y="150.8571428571429" width="61.25" height="62.85714285714286" as="geometry"/>
                </mxCell>
                <mxCell id="36" value="8" style="strokeWidth=1;shadow=0;dashed=0;align=center;html=1;shape=mxgraph.mockup.forms.rrect;rSize=0;strokeColor=#999999;fontColor=#999999;" vertex="1" parent="18">
                    <mxGeometry x="30.625" y="213.71428571428575" width="61.25" height="62.85714285714286" as="geometry"/>
                </mxCell>
                <mxCell id="37" value="9" style="strokeWidth=1;shadow=0;dashed=0;align=center;html=1;shape=mxgraph.mockup.forms.rrect;rSize=0;strokeColor=#999999;fontColor=#999999;" vertex="1" parent="18">
                    <mxGeometry x="91.875" y="213.71428571428575" width="61.25" height="62.85714285714286" as="geometry"/>
                </mxCell>
                <mxCell id="38" value="10" style="strokeWidth=1;shadow=0;dashed=0;align=center;html=1;shape=mxgraph.mockup.forms.rrect;rSize=0;strokeColor=#999999;fontColor=#999999;" vertex="1" parent="18">
                    <mxGeometry x="153.125" y="213.71428571428575" width="61.25" height="62.85714285714286" as="geometry"/>
                </mxCell>
                <mxCell id="39" value="11" style="strokeWidth=1;shadow=0;dashed=0;align=center;html=1;shape=mxgraph.mockup.forms.rrect;rSize=0;strokeColor=#999999;fontColor=#999999;" vertex="1" parent="18">
                    <mxGeometry x="214.375" y="213.71428571428575" width="61.25" height="62.85714285714286" as="geometry"/>
                </mxCell>
                <mxCell id="40" value="12" style="strokeWidth=1;shadow=0;dashed=0;align=center;html=1;shape=mxgraph.mockup.forms.rrect;rSize=0;strokeColor=#999999;fontColor=#999999;" vertex="1" parent="18">
                    <mxGeometry x="275.625" y="213.71428571428575" width="61.25" height="62.85714285714286" as="geometry"/>
                </mxCell>
                <mxCell id="41" value="13" style="strokeWidth=1;shadow=0;dashed=0;align=center;html=1;shape=mxgraph.mockup.forms.rrect;rSize=0;strokeColor=#999999;fontColor=#999999;" vertex="1" parent="18">
                    <mxGeometry x="336.875" y="213.71428571428575" width="61.25" height="62.85714285714286" as="geometry"/>
                </mxCell>
                <mxCell id="42" value="14" style="strokeWidth=1;shadow=0;dashed=0;align=center;html=1;shape=mxgraph.mockup.forms.rrect;rSize=0;strokeColor=#999999;fontColor=#999999;" vertex="1" parent="18">
                    <mxGeometry x="398.125" y="213.71428571428575" width="61.25" height="62.85714285714286" as="geometry"/>
                </mxCell>
                <mxCell id="43" value="15" style="strokeWidth=1;shadow=0;dashed=0;align=center;html=1;shape=mxgraph.mockup.forms.rrect;rSize=0;strokeColor=#999999;fontColor=#999999;" vertex="1" parent="18">
                    <mxGeometry x="30.625" y="276.57142857142856" width="61.25" height="62.85714285714286" as="geometry"/>
                </mxCell>
                <mxCell id="44" value="16" style="strokeWidth=1;shadow=0;dashed=0;align=center;html=1;shape=mxgraph.mockup.forms.rrect;rSize=0;strokeColor=#999999;fontColor=#999999;" vertex="1" parent="18">
                    <mxGeometry x="91.875" y="276.57142857142856" width="61.25" height="62.85714285714286" as="geometry"/>
                </mxCell>
                <mxCell id="45" value="17" style="strokeWidth=1;shadow=0;dashed=0;align=center;html=1;shape=mxgraph.mockup.forms.rrect;rSize=0;strokeColor=#999999;fontColor=#999999;" vertex="1" parent="18">
                    <mxGeometry x="153.125" y="276.57142857142856" width="61.25" height="62.85714285714286" as="geometry"/>
                </mxCell>
                <mxCell id="46" value="18" style="strokeWidth=1;shadow=0;dashed=0;align=center;html=1;shape=mxgraph.mockup.forms.rrect;rSize=0;strokeColor=#999999;fontColor=#999999;" vertex="1" parent="18">
                    <mxGeometry x="214.375" y="276.57142857142856" width="61.25" height="62.85714285714286" as="geometry"/>
                </mxCell>
                <mxCell id="47" value="19" style="strokeWidth=1;shadow=0;dashed=0;align=center;html=1;shape=mxgraph.mockup.forms.rrect;rSize=0;strokeColor=#999999;fontColor=#999999;" vertex="1" parent="18">
                    <mxGeometry x="275.625" y="276.57142857142856" width="61.25" height="62.85714285714286" as="geometry"/>
                </mxCell>
                <mxCell id="48" value="20" style="strokeWidth=1;shadow=0;dashed=0;align=center;html=1;shape=mxgraph.mockup.forms.rrect;rSize=0;strokeColor=#999999;fontColor=#999999;" vertex="1" parent="18">
                    <mxGeometry x="336.875" y="276.57142857142856" width="61.25" height="62.85714285714286" as="geometry"/>
                </mxCell>
                <mxCell id="49" value="21" style="strokeWidth=1;shadow=0;dashed=0;align=center;html=1;shape=mxgraph.mockup.forms.rrect;rSize=0;strokeColor=#999999;fontColor=#999999;" vertex="1" parent="18">
                    <mxGeometry x="398.125" y="276.57142857142856" width="61.25" height="62.85714285714286" as="geometry"/>
                </mxCell>
                <mxCell id="50" value="22" style="strokeWidth=1;shadow=0;dashed=0;align=center;html=1;shape=mxgraph.mockup.forms.rrect;rSize=0;strokeColor=#999999;fontColor=#999999;" vertex="1" parent="18">
                    <mxGeometry x="30.625" y="339.42857142857144" width="61.25" height="62.85714285714286" as="geometry"/>
                </mxCell>
                <mxCell id="51" value="23" style="strokeWidth=1;shadow=0;dashed=0;align=center;html=1;shape=mxgraph.mockup.forms.rrect;rSize=0;strokeColor=#999999;fontColor=#999999;" vertex="1" parent="18">
                    <mxGeometry x="91.875" y="339.42857142857144" width="61.25" height="62.85714285714286" as="geometry"/>
                </mxCell>
                <mxCell id="52" value="25" style="strokeWidth=1;shadow=0;dashed=0;align=center;html=1;shape=mxgraph.mockup.forms.rrect;rSize=0;strokeColor=#999999;fontColor=#999999;" vertex="1" parent="18">
                    <mxGeometry x="214.375" y="339.42857142857144" width="61.25" height="62.85714285714286" as="geometry"/>
                </mxCell>
                <mxCell id="53" value="26" style="strokeWidth=1;shadow=0;dashed=0;align=center;html=1;shape=mxgraph.mockup.forms.rrect;rSize=0;strokeColor=#999999;fontColor=#999999;" vertex="1" parent="18">
                    <mxGeometry x="275.625" y="339.42857142857144" width="61.25" height="62.85714285714286" as="geometry"/>
                </mxCell>
                <mxCell id="54" value="27" style="strokeWidth=1;shadow=0;dashed=0;align=center;html=1;shape=mxgraph.mockup.forms.rrect;rSize=0;strokeColor=#999999;fontColor=#999999;" vertex="1" parent="18">
                    <mxGeometry x="336.875" y="339.42857142857144" width="61.25" height="62.85714285714286" as="geometry"/>
                </mxCell>
                <mxCell id="55" value="28" style="strokeWidth=1;shadow=0;dashed=0;align=center;html=1;shape=mxgraph.mockup.forms.rrect;rSize=0;strokeColor=#999999;fontColor=#999999;" vertex="1" parent="18">
                    <mxGeometry x="398.125" y="339.42857142857144" width="61.25" height="62.85714285714286" as="geometry"/>
                </mxCell>
                <mxCell id="56" value="29" style="strokeWidth=1;shadow=0;dashed=0;align=center;html=1;shape=mxgraph.mockup.forms.rrect;rSize=0;strokeColor=#999999;fontColor=#999999;" vertex="1" parent="18">
                    <mxGeometry x="30.625" y="402.28571428571433" width="61.25" height="62.85714285714286" as="geometry"/>
                </mxCell>
                <mxCell id="57" value="30" style="strokeWidth=1;shadow=0;dashed=0;align=center;html=1;shape=mxgraph.mockup.forms.rrect;rSize=0;strokeColor=#999999;fontColor=#999999;" vertex="1" parent="18">
                    <mxGeometry x="91.875" y="402.28571428571433" width="61.25" height="62.85714285714286" as="geometry"/>
                </mxCell>
                <mxCell id="58" value="31" style="strokeWidth=1;shadow=0;dashed=0;align=center;html=1;shape=mxgraph.mockup.forms.rrect;rSize=0;strokeColor=#999999;fontColor=#999999;" vertex="1" parent="18">
                    <mxGeometry x="153.125" y="402.28571428571433" width="61.25" height="62.85714285714286" as="geometry"/>
                </mxCell>
                <mxCell id="59" value="1" style="strokeWidth=1;shadow=0;dashed=0;align=center;html=1;shape=mxgraph.mockup.forms.rrect;rSize=0;strokeColor=#999999;fontColor=#999999;fillColor=#ddeeff;" vertex="1" parent="18">
                    <mxGeometry x="214.375" y="402.28571428571433" width="61.25" height="62.85714285714286" as="geometry"/>
                </mxCell>
                <mxCell id="60" value="2" style="strokeWidth=1;shadow=0;dashed=0;align=center;html=1;shape=mxgraph.mockup.forms.rrect;rSize=0;strokeColor=#999999;fontColor=#999999;fillColor=#ddeeff;" vertex="1" parent="18">
                    <mxGeometry x="275.625" y="402.28571428571433" width="61.25" height="62.85714285714286" as="geometry"/>
                </mxCell>
                <mxCell id="61" value="3" style="strokeWidth=1;shadow=0;dashed=0;align=center;html=1;shape=mxgraph.mockup.forms.rrect;rSize=0;strokeColor=#999999;fontColor=#999999;fillColor=#ddeeff;" vertex="1" parent="18">
                    <mxGeometry x="336.875" y="402.28571428571433" width="61.25" height="62.85714285714286" as="geometry"/>
                </mxCell>
                <mxCell id="62" value="4" style="strokeWidth=1;shadow=0;dashed=0;align=center;html=1;shape=mxgraph.mockup.forms.rrect;rSize=0;strokeColor=#999999;fontColor=#999999;fillColor=#ddeeff;" vertex="1" parent="18">
                    <mxGeometry x="398.125" y="402.28571428571433" width="61.25" height="62.85714285714286" as="geometry"/>
                </mxCell>
                <mxCell id="63" value="5" style="strokeWidth=1;shadow=0;dashed=0;align=center;html=1;shape=mxgraph.mockup.forms.rrect;rSize=0;strokeColor=#999999;fontColor=#999999;fillColor=#ddeeff;" vertex="1" parent="18">
                    <mxGeometry x="30.625" y="465.14285714285717" width="61.25" height="62.85714285714286" as="geometry"/>
                </mxCell>
                <mxCell id="64" value="6" style="strokeWidth=1;shadow=0;dashed=0;align=center;html=1;shape=mxgraph.mockup.forms.rrect;rSize=0;strokeColor=#999999;fontColor=#999999;fillColor=#ddeeff;" vertex="1" parent="18">
                    <mxGeometry x="91.875" y="465.14285714285717" width="61.25" height="62.85714285714286" as="geometry"/>
                </mxCell>
                <mxCell id="65" value="7" style="strokeWidth=1;shadow=0;dashed=0;align=center;html=1;shape=mxgraph.mockup.forms.rrect;rSize=0;strokeColor=#999999;fontColor=#999999;fillColor=#ddeeff;" vertex="1" parent="18">
                    <mxGeometry x="153.125" y="465.14285714285717" width="61.25" height="62.85714285714286" as="geometry"/>
                </mxCell>
                <mxCell id="66" value="8" style="strokeWidth=1;shadow=0;dashed=0;align=center;html=1;shape=mxgraph.mockup.forms.rrect;rSize=0;strokeColor=#999999;fontColor=#999999;fillColor=#ddeeff;" vertex="1" parent="18">
                    <mxGeometry x="214.375" y="465.14285714285717" width="61.25" height="62.85714285714286" as="geometry"/>
                </mxCell>
                <mxCell id="67" value="9" style="strokeWidth=1;shadow=0;dashed=0;align=center;html=1;shape=mxgraph.mockup.forms.rrect;rSize=0;strokeColor=#999999;fontColor=#999999;fillColor=#ddeeff;" vertex="1" parent="18">
                    <mxGeometry x="275.625" y="465.14285714285717" width="61.25" height="62.85714285714286" as="geometry"/>
                </mxCell>
                <mxCell id="68" value="10" style="strokeWidth=1;shadow=0;dashed=0;align=center;html=1;shape=mxgraph.mockup.forms.rrect;rSize=0;strokeColor=#999999;fontColor=#999999;fillColor=#ddeeff;" vertex="1" parent="18">
                    <mxGeometry x="336.875" y="465.14285714285717" width="61.25" height="62.85714285714286" as="geometry"/>
                </mxCell>
                <mxCell id="69" value="11" style="strokeWidth=1;shadow=0;dashed=0;align=center;html=1;shape=mxgraph.mockup.forms.rrect;rSize=0;strokeColor=#999999;fontColor=#999999;fillColor=#ddeeff;" vertex="1" parent="18">
                    <mxGeometry x="398.125" y="465.14285714285717" width="61.25" height="62.85714285714286" as="geometry"/>
                </mxCell>
                <mxCell id="70" value="24" style="strokeWidth=1;shadow=0;dashed=0;align=center;html=1;shape=mxgraph.mockup.forms.rrect;rSize=0;strokeColor=#ff0000;fontColor=#ffffff;strokeWidth=2;fillColor=#008cff;" vertex="1" parent="18">
                    <mxGeometry x="153.125" y="339.42857142857144" width="61.25" height="62.85714285714286" as="geometry"/>
                </mxCell>
                <mxCell id="72" value="-2000" style="text;html=1;strokeColor=none;fillColor=none;align=center;verticalAlign=middle;whiteSpace=wrap;rounded=0;" vertex="1" parent="18">
                    <mxGeometry x="40.53" y="180" width="44.5" height="30" as="geometry"/>
                </mxCell>
                <mxCell id="78" value="-20000" style="text;html=1;strokeColor=none;fillColor=none;align=center;verticalAlign=middle;whiteSpace=wrap;rounded=0;" vertex="1" parent="18">
                    <mxGeometry x="338.12" y="241" width="60" height="30" as="geometry"/>
                </mxCell>
                <mxCell id="80" value="-4000" style="text;html=1;strokeColor=none;fillColor=none;align=center;verticalAlign=middle;whiteSpace=wrap;rounded=0;" vertex="1" parent="18">
                    <mxGeometry x="338.12" y="303.43" width="60" height="30" as="geometry"/>
                </mxCell>
                <mxCell id="83" value="-5000" style="text;html=1;strokeColor=none;fillColor=none;align=center;verticalAlign=middle;whiteSpace=wrap;rounded=0;" vertex="1" parent="18">
                    <mxGeometry x="336.88" y="178" width="60" height="30" as="geometry"/>
                </mxCell>
                <mxCell id="84" value="-8000" style="text;html=1;strokeColor=none;fillColor=none;align=center;verticalAlign=middle;whiteSpace=wrap;rounded=0;" vertex="1" parent="18">
                    <mxGeometry x="396.88" y="178" width="60" height="30" as="geometry"/>
                </mxCell>
                <mxCell id="85" value="-10000" style="text;html=1;strokeColor=none;fillColor=none;align=center;verticalAlign=middle;whiteSpace=wrap;rounded=0;" vertex="1" parent="18">
                    <mxGeometry x="398.75" y="241" width="60" height="30" as="geometry"/>
                </mxCell>
                <mxCell id="149" value="-800" style="text;html=1;strokeColor=none;fillColor=none;align=center;verticalAlign=middle;whiteSpace=wrap;rounded=0;" vertex="1" parent="18">
                    <mxGeometry x="150" y="177.99999999999991" width="60" height="30" as="geometry"/>
                </mxCell>
                <mxCell id="150" value="-1000" style="text;html=1;strokeColor=none;fillColor=none;align=center;verticalAlign=middle;whiteSpace=wrap;rounded=0;" vertex="1" parent="18">
                    <mxGeometry x="216.25" y="177.99999999999991" width="60" height="30" as="geometry"/>
                </mxCell>
                <mxCell id="152" value="-1000" style="text;html=1;strokeColor=none;fillColor=none;align=center;verticalAlign=middle;whiteSpace=wrap;rounded=0;" vertex="1" parent="18">
                    <mxGeometry x="150" y="303.42999999999995" width="60" height="30" as="geometry"/>
                </mxCell>
                <mxCell id="151" value="-1000" style="text;html=1;strokeColor=none;fillColor=none;align=center;verticalAlign=middle;whiteSpace=wrap;rounded=0;" vertex="1" parent="18">
                    <mxGeometry x="32.78" y="240.99999999999994" width="60" height="30" as="geometry"/>
                </mxCell>
                <mxCell id="153" value="-1000" style="text;html=1;strokeColor=none;fillColor=none;align=center;verticalAlign=middle;whiteSpace=wrap;rounded=0;" vertex="1" parent="18">
                    <mxGeometry x="276.25" y="237.56999999999994" width="60" height="30" as="geometry"/>
                </mxCell>
                <mxCell id="154" value="-900" style="text;html=1;strokeColor=none;fillColor=none;align=center;verticalAlign=middle;whiteSpace=wrap;rounded=0;" vertex="1" parent="18">
                    <mxGeometry x="216.25" y="303.42999999999995" width="60" height="30" as="geometry"/>
                </mxCell>
                <mxCell id="155" value="-900" style="text;html=1;strokeColor=none;fillColor=none;align=center;verticalAlign=middle;whiteSpace=wrap;rounded=0;" vertex="1" parent="18">
                    <mxGeometry x="90" y="366.28999999999996" width="60" height="30" as="geometry"/>
                </mxCell>
                <mxCell id="156" value="-900" style="text;html=1;strokeColor=none;fillColor=none;align=center;verticalAlign=middle;whiteSpace=wrap;rounded=0;" vertex="1" parent="18">
                    <mxGeometry x="91.88" y="178" width="60" height="30" as="geometry"/>
                </mxCell>
                <mxCell id="157" value="-800" style="text;html=1;strokeColor=none;fillColor=none;align=center;verticalAlign=middle;whiteSpace=wrap;rounded=0;" vertex="1" parent="18">
                    <mxGeometry x="91.88" y="237.56999999999994" width="60" height="30" as="geometry"/>
                </mxCell>
                <mxCell id="158" value="-800" style="text;html=1;strokeColor=none;fillColor=none;align=center;verticalAlign=middle;whiteSpace=wrap;rounded=0;" vertex="1" parent="18">
                    <mxGeometry x="278.12" y="303.42999999999995" width="60" height="30" as="geometry"/>
                </mxCell>
                <mxCell id="159" value="+230000" style="text;html=1;strokeColor=none;fillColor=none;align=center;verticalAlign=middle;whiteSpace=wrap;rounded=0;" vertex="1" parent="18">
                    <mxGeometry x="150" y="240.9999999999999" width="60" height="30" as="geometry"/>
                </mxCell>
                <mxCell id="161" value="-1200" style="text;html=1;strokeColor=none;fillColor=none;align=center;verticalAlign=middle;whiteSpace=wrap;rounded=0;" vertex="1" parent="18">
                    <mxGeometry x="25.03" y="366.28999999999985" width="60" height="30" as="geometry"/>
                </mxCell>
                <mxCell id="162" value="-1200" style="text;html=1;strokeColor=none;fillColor=none;align=center;verticalAlign=middle;whiteSpace=wrap;rounded=0;" vertex="1" parent="18">
                    <mxGeometry x="90" y="303.42999999999984" width="60" height="30" as="geometry"/>
                </mxCell>
                <mxCell id="163" value="-900" style="text;html=1;strokeColor=none;fillColor=none;align=center;verticalAlign=middle;whiteSpace=wrap;rounded=0;" vertex="1" parent="18">
                    <mxGeometry x="31.879999999999995" y="303.43" width="60" height="30" as="geometry"/>
                </mxCell>
                <mxCell id="164" value="+5000" style="text;html=1;strokeColor=none;fillColor=none;align=center;verticalAlign=middle;whiteSpace=wrap;rounded=0;" vertex="1" parent="18">
                    <mxGeometry x="210" y="241" width="60" height="30" as="geometry"/>
                </mxCell>
                <mxCell id="166" value="-2000" style="text;html=1;strokeColor=none;fillColor=none;align=center;verticalAlign=middle;whiteSpace=wrap;rounded=0;" vertex="1" parent="18">
                    <mxGeometry x="275.63" y="177.9999999999999" width="60" height="30" as="geometry"/>
                </mxCell>
                <mxCell id="167" value="&lt;font style=&quot;font-size: 8px;&quot;&gt;詳細　編集&lt;/font&gt;" style="text;html=1;strokeColor=none;fillColor=none;align=center;verticalAlign=middle;whiteSpace=wrap;rounded=0;" vertex="1" parent="18">
                    <mxGeometry x="31.029999999999973" y="189.99999999999997" width="60" height="30" as="geometry"/>
                </mxCell>
                <mxCell id="168" value="&lt;font style=&quot;font-size: 8px;&quot;&gt;詳細　編集&lt;/font&gt;" style="text;html=1;strokeColor=none;fillColor=none;align=center;verticalAlign=middle;whiteSpace=wrap;rounded=0;" vertex="1" parent="18">
                    <mxGeometry x="93.13" y="190" width="60" height="30" as="geometry"/>
                </mxCell>
                <mxCell id="169" value="&lt;font style=&quot;font-size: 8px;&quot;&gt;詳細　編集&lt;/font&gt;" style="text;html=1;strokeColor=none;fillColor=none;align=center;verticalAlign=middle;whiteSpace=wrap;rounded=0;" vertex="1" parent="18">
                    <mxGeometry x="156.25" y="190" width="60" height="30" as="geometry"/>
                </mxCell>
                <mxCell id="170" value="&lt;font style=&quot;font-size: 8px;&quot;&gt;詳細　編集&lt;/font&gt;" style="text;html=1;strokeColor=none;fillColor=none;align=center;verticalAlign=middle;whiteSpace=wrap;rounded=0;" vertex="1" parent="18">
                    <mxGeometry x="215" y="190" width="60" height="30" as="geometry"/>
                </mxCell>
                <mxCell id="171" value="&lt;font style=&quot;font-size: 8px;&quot;&gt;詳細　編集&lt;/font&gt;" style="text;html=1;strokeColor=none;fillColor=none;align=center;verticalAlign=middle;whiteSpace=wrap;rounded=0;" vertex="1" parent="18">
                    <mxGeometry x="278.12" y="190" width="60" height="30" as="geometry"/>
                </mxCell>
                <mxCell id="172" value="&lt;font style=&quot;font-size: 8px;&quot;&gt;詳細　編集&lt;/font&gt;" style="text;html=1;strokeColor=none;fillColor=none;align=center;verticalAlign=middle;whiteSpace=wrap;rounded=0;" vertex="1" parent="18">
                    <mxGeometry x="336.25" y="190" width="60" height="30" as="geometry"/>
                </mxCell>
                <mxCell id="173" value="&lt;font style=&quot;font-size: 8px;&quot;&gt;詳細　編集&lt;/font&gt;" style="text;html=1;strokeColor=none;fillColor=none;align=center;verticalAlign=middle;whiteSpace=wrap;rounded=0;" vertex="1" parent="18">
                    <mxGeometry x="396.25" y="190" width="60" height="30" as="geometry"/>
                </mxCell>
                <mxCell id="76" value="-15000" style="text;html=1;strokeColor=none;fillColor=none;align=center;verticalAlign=middle;whiteSpace=wrap;rounded=0;" vertex="1" parent="1">
                    <mxGeometry x="475.22" y="434.43" width="60" height="30" as="geometry"/>
                </mxCell>
                <mxCell id="174" value="&lt;font style=&quot;font-size: 8px;&quot;&gt;詳細　編集&lt;/font&gt;" style="text;html=1;strokeColor=none;fillColor=none;align=center;verticalAlign=middle;whiteSpace=wrap;rounded=0;" vertex="1" parent="1">
                    <mxGeometry x="109.02999999999997" y="384" width="60" height="30" as="geometry"/>
                </mxCell>
                <mxCell id="175" value="&lt;font style=&quot;font-size: 8px;&quot;&gt;詳細　編集&lt;/font&gt;" style="text;html=1;strokeColor=none;fillColor=none;align=center;verticalAlign=middle;whiteSpace=wrap;rounded=0;" vertex="1" parent="1">
                    <mxGeometry x="171.13" y="384" width="60" height="30" as="geometry"/>
                </mxCell>
                <mxCell id="176" value="&lt;font style=&quot;font-size: 8px;&quot;&gt;詳細　編集&lt;/font&gt;" style="text;html=1;strokeColor=none;fillColor=none;align=center;verticalAlign=middle;whiteSpace=wrap;rounded=0;" vertex="1" parent="1">
                    <mxGeometry x="234.25" y="384" width="60" height="30" as="geometry"/>
                </mxCell>
                <mxCell id="177" value="&lt;font style=&quot;font-size: 8px;&quot;&gt;詳細　編集&lt;/font&gt;" style="text;html=1;strokeColor=none;fillColor=none;align=center;verticalAlign=middle;whiteSpace=wrap;rounded=0;" vertex="1" parent="1">
                    <mxGeometry x="293" y="384" width="60" height="30" as="geometry"/>
                </mxCell>
                <mxCell id="178" value="&lt;font style=&quot;font-size: 8px;&quot;&gt;詳細　編集&lt;/font&gt;" style="text;html=1;strokeColor=none;fillColor=none;align=center;verticalAlign=middle;whiteSpace=wrap;rounded=0;" vertex="1" parent="1">
                    <mxGeometry x="356.12" y="384" width="60" height="30" as="geometry"/>
                </mxCell>
                <mxCell id="179" value="&lt;font style=&quot;font-size: 8px;&quot;&gt;詳細　編集&lt;/font&gt;" style="text;html=1;strokeColor=none;fillColor=none;align=center;verticalAlign=middle;whiteSpace=wrap;rounded=0;" vertex="1" parent="1">
                    <mxGeometry x="414.25" y="384" width="60" height="30" as="geometry"/>
                </mxCell>
                <mxCell id="180" value="&lt;font style=&quot;font-size: 8px;&quot;&gt;詳細　編集&lt;/font&gt;" style="text;html=1;strokeColor=none;fillColor=none;align=center;verticalAlign=middle;whiteSpace=wrap;rounded=0;" vertex="1" parent="1">
                    <mxGeometry x="474.25" y="384" width="60" height="30" as="geometry"/>
                </mxCell>
                <mxCell id="181" value="&lt;font style=&quot;font-size: 8px;&quot;&gt;詳細　編集&lt;/font&gt;" style="text;html=1;strokeColor=none;fillColor=none;align=center;verticalAlign=middle;whiteSpace=wrap;rounded=0;" vertex="1" parent="1">
                    <mxGeometry x="111.02999999999997" y="446" width="60" height="30" as="geometry"/>
                </mxCell>
                <mxCell id="182" value="&lt;font style=&quot;font-size: 8px;&quot;&gt;詳細　編集&lt;/font&gt;" style="text;html=1;strokeColor=none;fillColor=none;align=center;verticalAlign=middle;whiteSpace=wrap;rounded=0;" vertex="1" parent="1">
                    <mxGeometry x="173.13" y="446" width="60" height="30" as="geometry"/>
                </mxCell>
                <mxCell id="183" value="&lt;font style=&quot;font-size: 8px;&quot;&gt;詳細　編集&lt;/font&gt;" style="text;html=1;strokeColor=none;fillColor=none;align=center;verticalAlign=middle;whiteSpace=wrap;rounded=0;" vertex="1" parent="1">
                    <mxGeometry x="236.25" y="446" width="60" height="30" as="geometry"/>
                </mxCell>
                <mxCell id="184" value="&lt;font style=&quot;font-size: 8px;&quot;&gt;詳細　編集&lt;/font&gt;" style="text;html=1;strokeColor=none;fillColor=none;align=center;verticalAlign=middle;whiteSpace=wrap;rounded=0;" vertex="1" parent="1">
                    <mxGeometry x="295" y="446" width="60" height="30" as="geometry"/>
                </mxCell>
                <mxCell id="185" value="&lt;font style=&quot;font-size: 8px;&quot;&gt;詳細　編集&lt;/font&gt;" style="text;html=1;strokeColor=none;fillColor=none;align=center;verticalAlign=middle;whiteSpace=wrap;rounded=0;" vertex="1" parent="1">
                    <mxGeometry x="358.12" y="446" width="60" height="30" as="geometry"/>
                </mxCell>
                <mxCell id="186" value="&lt;font style=&quot;font-size: 8px;&quot;&gt;詳細　編集&lt;/font&gt;" style="text;html=1;strokeColor=none;fillColor=none;align=center;verticalAlign=middle;whiteSpace=wrap;rounded=0;" vertex="1" parent="1">
                    <mxGeometry x="416.25" y="446" width="60" height="30" as="geometry"/>
                </mxCell>
                <mxCell id="187" value="&lt;font style=&quot;font-size: 8px;&quot;&gt;詳細　編集&lt;/font&gt;" style="text;html=1;strokeColor=none;fillColor=none;align=center;verticalAlign=middle;whiteSpace=wrap;rounded=0;" vertex="1" parent="1">
                    <mxGeometry x="476.25" y="446" width="60" height="30" as="geometry"/>
                </mxCell>
                <mxCell id="188" value="&lt;font style=&quot;font-size: 8px;&quot;&gt;詳細　編集&lt;/font&gt;" style="text;html=1;strokeColor=none;fillColor=none;align=center;verticalAlign=middle;whiteSpace=wrap;rounded=0;" vertex="1" parent="1">
                    <mxGeometry x="109.02999999999997" y="510" width="60" height="30" as="geometry"/>
                </mxCell>
                <mxCell id="189" value="&lt;font style=&quot;font-size: 8px;&quot;&gt;詳細　編集&lt;/font&gt;" style="text;html=1;strokeColor=none;fillColor=none;align=center;verticalAlign=middle;whiteSpace=wrap;rounded=0;" vertex="1" parent="1">
                    <mxGeometry x="171.13" y="510" width="60" height="30" as="geometry"/>
                </mxCell>
                <mxCell id="203" value="" style="shape=table;html=1;whiteSpace=wrap;startSize=0;container=1;collapsible=0;childLayout=tableLayout;fontSize=8;" vertex="1" parent="1">
                    <mxGeometry x="610" y="220" width="229" height="120" as="geometry"/>
                </mxCell>
                <mxCell id="204" value="" style="shape=tableRow;horizontal=0;startSize=0;swimlaneHead=0;swimlaneBody=0;top=0;left=0;bottom=0;right=0;collapsible=0;dropTarget=0;fillColor=none;points=[[0,0.5],[1,0.5]];portConstraint=eastwest;fontSize=8;" vertex="1" parent="203">
                    <mxGeometry width="229" height="40" as="geometry"/>
                </mxCell>
                <mxCell id="205" value="&lt;font style=&quot;font-size: 14px;&quot;&gt;収入合計&lt;/font&gt;" style="shape=partialRectangle;html=1;whiteSpace=wrap;connectable=0;fillColor=none;top=0;left=0;bottom=0;right=0;overflow=hidden;fontSize=8;" vertex="1" parent="204">
                    <mxGeometry width="115" height="40" as="geometry">
                        <mxRectangle width="115" height="40" as="alternateBounds"/>
                    </mxGeometry>
                </mxCell>
                <mxCell id="206" value="&lt;font style=&quot;font-size: 14px;&quot;&gt;230000&lt;/font&gt;" style="shape=partialRectangle;html=1;whiteSpace=wrap;connectable=0;fillColor=none;top=0;left=0;bottom=0;right=0;overflow=hidden;fontSize=8;" vertex="1" parent="204">
                    <mxGeometry x="115" width="114" height="40" as="geometry">
                        <mxRectangle width="114" height="40" as="alternateBounds"/>
                    </mxGeometry>
                </mxCell>
                <mxCell id="208" value="" style="shape=tableRow;horizontal=0;startSize=0;swimlaneHead=0;swimlaneBody=0;top=0;left=0;bottom=0;right=0;collapsible=0;dropTarget=0;fillColor=none;points=[[0,0.5],[1,0.5]];portConstraint=eastwest;fontSize=8;" vertex="1" parent="203">
                    <mxGeometry y="40" width="229" height="40" as="geometry"/>
                </mxCell>
                <mxCell id="209" value="&lt;font style=&quot;font-size: 14px;&quot;&gt;支出合計&lt;/font&gt;" style="shape=partialRectangle;html=1;whiteSpace=wrap;connectable=0;fillColor=none;top=0;left=0;bottom=0;right=0;overflow=hidden;fontSize=8;" vertex="1" parent="208">
                    <mxGeometry width="115" height="40" as="geometry">
                        <mxRectangle width="115" height="40" as="alternateBounds"/>
                    </mxGeometry>
                </mxCell>
                <mxCell id="210" value="&lt;font style=&quot;font-size: 14px;&quot;&gt;-150000&lt;/font&gt;" style="shape=partialRectangle;html=1;whiteSpace=wrap;connectable=0;fillColor=none;top=0;left=0;bottom=0;right=0;overflow=hidden;fontSize=8;" vertex="1" parent="208">
                    <mxGeometry x="115" width="114" height="40" as="geometry">
                        <mxRectangle width="114" height="40" as="alternateBounds"/>
                    </mxGeometry>
                </mxCell>
                <mxCell id="212" value="" style="shape=tableRow;horizontal=0;startSize=0;swimlaneHead=0;swimlaneBody=0;top=0;left=0;bottom=0;right=0;collapsible=0;dropTarget=0;fillColor=none;points=[[0,0.5],[1,0.5]];portConstraint=eastwest;fontSize=8;" vertex="1" parent="203">
                    <mxGeometry y="80" width="229" height="40" as="geometry"/>
                </mxCell>
                <mxCell id="213" value="&lt;font style=&quot;font-size: 14px;&quot;&gt;差異&lt;/font&gt;" style="shape=partialRectangle;html=1;whiteSpace=wrap;connectable=0;fillColor=none;top=0;left=0;bottom=0;right=0;overflow=hidden;fontSize=8;" vertex="1" parent="212">
                    <mxGeometry width="115" height="40" as="geometry">
                        <mxRectangle width="115" height="40" as="alternateBounds"/>
                    </mxGeometry>
                </mxCell>
                <mxCell id="214" value="&lt;font style=&quot;font-size: 14px;&quot;&gt;80000&lt;/font&gt;" style="shape=partialRectangle;html=1;whiteSpace=wrap;connectable=0;fillColor=none;top=0;left=0;bottom=0;right=0;overflow=hidden;fontSize=8;" vertex="1" parent="212">
                    <mxGeometry x="115" width="114" height="40" as="geometry">
                        <mxRectangle width="114" height="40" as="alternateBounds"/>
                    </mxGeometry>
                </mxCell>
                <mxCell id="216" value="&lt;font style=&quot;font-size: 14px;&quot;&gt;収入支出一覧　項目一覧　カレンダー一覧　月別グラフ　割勘一覧　アカウント　ログアウト&lt;/font&gt;" style="rounded=0;whiteSpace=wrap;html=1;fontSize=18;" vertex="1" parent="1">
                    <mxGeometry x="250" width="600" height="60" as="geometry"/>
                </mxCell>
            </root>
        </mxGraphModel>
    </diagram>
</mxfile>